<svg width="72" height="94" viewBox="0 0 72 94" fill="none" xmlns="http://www.w3.org/2000/svg">
<path d="M8.86917e-05 93.0908V-9.15527e-05H37.2728C44.1213 -9.15527e-05 49.8334 1.01506 54.4092 3.04536C58.9849 5.07567 62.4243 7.89385 64.7274 11.4999C67.0304 15.0757 68.1819 19.1969 68.1819 23.8635C68.1819 27.4999 67.4546 30.6969 66.0001 33.4545C64.5455 36.1817 62.5455 38.4242 60.0001 40.1817C57.4849 41.909 54.6062 43.1363 51.3637 43.8635V44.7726C54.9092 44.9242 58.2274 45.9242 61.3183 47.7726C64.4395 49.6211 66.9698 52.212 68.9092 55.5454C70.8486 58.8484 71.8183 62.7878 71.8183 67.3635C71.8183 72.3029 70.591 76.712 68.1365 80.5908C65.7122 84.4393 62.1213 87.4848 57.3637 89.7272C52.6062 91.9696 46.7425 93.0908 39.7728 93.0908H8.86917e-05ZM19.6819 76.9999H35.7274C41.2122 76.9999 45.2122 75.9545 47.7274 73.8635C50.2425 71.7423 51.5001 68.9242 51.5001 65.409C51.5001 62.8332 50.8789 60.5605 49.6365 58.5908C48.394 56.6211 46.6213 55.0757 44.3183 53.9545C42.0455 52.8332 39.3334 52.2726 36.1819 52.2726H19.6819V76.9999ZM19.6819 38.9545H34.2728C36.9698 38.9545 39.3637 38.4848 41.4546 37.5454C43.5758 36.5757 45.2425 35.212 46.4546 33.4545C47.6971 31.6969 48.3183 29.5908 48.3183 27.1363C48.3183 23.7726 47.1213 21.0605 44.7274 18.9999C42.3637 16.9393 39.0001 15.909 34.6365 15.909H19.6819V38.9545Z" fill="black"/>
</svg>
