<svg width="549" height="317" viewBox="0 0 549 317" fill="none" xmlns="http://www.w3.org/2000/svg">
<g filter="url(#filter0_d_53_179)">
<path d="M444.565 247H104.092C73.4634 247 58.4511 209.679 80.5486 188.47L194.117 79.47C200.449 73.3933 208.885 70 217.66 70H444.565C463.343 70 478.565 85.2223 478.565 104V213C478.565 231.778 463.343 247 444.565 247Z" fill="white"/>
<path d="M444.565 247H104.092C73.4634 247 58.4511 209.679 80.5486 188.47L194.117 79.47C200.449 73.3933 208.885 70 217.66 70H444.565C463.343 70 478.565 85.2223 478.565 104V213C478.565 231.778 463.343 247 444.565 247Z" stroke="white" stroke-width="23"/>
</g>
<defs>
<filter id="filter0_d_53_179" x="0" y="0" width="548.565" height="317" filterUnits="userSpaceOnUse" color-interpolation-filters="sRGB">
<feFlood flood-opacity="0" result="BackgroundImageFix"/>
<feColorMatrix in="SourceAlpha" type="matrix" values="0 0 0 0 0 0 0 0 0 0 0 0 0 0 0 0 0 0 127 0" result="hardAlpha"/>
<feOffset/>
<feGaussianBlur stdDeviation="29.25"/>
<feComposite in2="hardAlpha" operator="out"/>
<feColorMatrix type="matrix" values="0 0 0 0 1 0 0 0 0 1 0 0 0 0 1 0 0 0 1 0"/>
<feBlend mode="normal" in2="BackgroundImageFix" result="effect1_dropShadow_53_179"/>
<feBlend mode="normal" in="SourceGraphic" in2="effect1_dropShadow_53_179" result="shape"/>
</filter>
</defs>
</svg>
