<svg width="549" height="317" viewBox="0 0 549 317" fill="none" xmlns="http://www.w3.org/2000/svg">
<g filter="url(#filter0_d_53_178)">
<path d="M104 247H444.474C475.102 247 490.114 209.679 468.017 188.47L354.448 79.47C348.117 73.3933 339.681 70 330.905 70H104C85.2223 70 70 85.2223 70 104V213C70 231.778 85.2223 247 104 247Z" fill="white"/>
<path d="M104 247H444.474C475.102 247 490.114 209.679 468.017 188.47L354.448 79.47C348.117 73.3933 339.681 70 330.905 70H104C85.2223 70 70 85.2223 70 104V213C70 231.778 85.2223 247 104 247Z" stroke="white" stroke-width="23"/>
</g>
<defs>
<filter id="filter0_d_53_178" x="0" y="0" width="548.565" height="317" filterUnits="userSpaceOnUse" color-interpolation-filters="sRGB">
<feFlood flood-opacity="0" result="BackgroundImageFix"/>
<feColorMatrix in="SourceAlpha" type="matrix" values="0 0 0 0 0 0 0 0 0 0 0 0 0 0 0 0 0 0 127 0" result="hardAlpha"/>
<feOffset/>
<feGaussianBlur stdDeviation="29.25"/>
<feComposite in2="hardAlpha" operator="out"/>
<feColorMatrix type="matrix" values="0 0 0 0 1 0 0 0 0 1 0 0 0 0 1 0 0 0 1 0"/>
<feBlend mode="normal" in2="BackgroundImageFix" result="effect1_dropShadow_53_178"/>
<feBlend mode="normal" in="SourceGraphic" in2="effect1_dropShadow_53_178" result="shape"/>
</filter>
</defs>
</svg>
